<svg width="38" height="42" viewBox="0 0 38 42" fill="none" xmlns="http://www.w3.org/2000/svg">
<path d="M12.5 30.2083C11.0417 30.2083 9.80903 29.7049 8.80208 28.6979C7.79514 27.691 7.29167 26.4583 7.29167 25C7.29167 23.5417 7.79514 22.309 8.80208 21.3021C9.80903 20.2951 11.0417 19.7917 12.5 19.7917C13.9583 19.7917 15.191 20.2951 16.1979 21.3021C17.2049 22.309 17.7083 23.5417 17.7083 25C17.7083 26.4583 17.2049 27.691 16.1979 28.6979C15.191 29.7049 13.9583 30.2083 12.5 30.2083ZM4.16667 41.6667C3.02083 41.6667 2.03993 41.2587 1.22396 40.4427C0.407986 39.6267 0 38.6458 0 37.5V8.33333C0 7.1875 0.407986 6.2066 1.22396 5.39063C2.03993 4.57465 3.02083 4.16667 4.16667 4.16667H6.25V0H10.4167V4.16667H27.0833V0H31.25V4.16667H33.3333C34.4792 4.16667 35.4601 4.57465 36.276 5.39063C37.092 6.2066 37.5 7.1875 37.5 8.33333V37.5C37.5 38.6458 37.092 39.6267 36.276 40.4427C35.4601 41.2587 34.4792 41.6667 33.3333 41.6667H4.16667ZM4.16667 37.5H33.3333V16.6667H4.16667V37.5Z" fill="white"/>
</svg>
