<svg width="38" height="38" viewBox="0 0 38 38" fill="none" xmlns="http://www.w3.org/2000/svg">
<path d="M13.5734 37.1875L12.8297 31.2375C12.4268 31.0826 12.0472 30.8966 11.6908 30.6797C11.3344 30.4628 10.9858 30.2303 10.6449 29.9824L5.11328 32.3066L0 23.4746L4.78789 19.8488C4.7569 19.6319 4.74141 19.4227 4.74141 19.2213V17.9662C4.74141 17.7648 4.7569 17.5556 4.78789 17.3387L0 13.7129L5.11328 4.88086L10.6449 7.20508C10.9858 6.95716 11.3422 6.72474 11.7141 6.50781C12.0859 6.29089 12.4578 6.10495 12.8297 5.95L13.5734 0H23.8L24.5438 5.95C24.9466 6.10495 25.3262 6.29089 25.6826 6.50781C26.039 6.72474 26.3876 6.95716 26.7285 7.20508L32.2602 4.88086L37.3734 13.7129L32.5855 17.3387C32.6165 17.5556 32.632 17.7648 32.632 17.9662V19.2213C32.632 19.4227 32.601 19.6319 32.5391 19.8488L37.327 23.4746L32.2137 32.3066L26.7285 29.9824C26.3876 30.2303 26.0313 30.4628 25.6594 30.6797C25.2875 30.8966 24.9156 31.0826 24.5438 31.2375L23.8 37.1875H13.5734ZM16.8273 33.4688H20.4996L21.1504 28.5414C22.1111 28.2935 23.002 27.9294 23.8232 27.449C24.6445 26.9687 25.396 26.3876 26.0777 25.7059L30.6797 27.6117L32.4926 24.4508L28.4949 21.4293C28.6499 20.9954 28.7583 20.5383 28.8203 20.058C28.8823 19.5777 28.9133 19.0896 28.9133 18.5938C28.9133 18.0979 28.8823 17.6098 28.8203 17.1295C28.7583 16.6492 28.6499 16.1921 28.4949 15.7582L32.4926 12.7367L30.6797 9.57578L26.0777 11.5281C25.396 10.8154 24.6445 10.2188 23.8232 9.73848C23.002 9.25814 22.1111 8.89401 21.1504 8.64609L20.5461 3.71875H16.8738L16.223 8.64609C15.2624 8.89401 14.3714 9.25814 13.5502 9.73848C12.729 10.2188 11.9775 10.7999 11.2957 11.4816L6.69375 9.57578L4.88086 12.7367L8.87852 15.7117C8.72357 16.1766 8.6151 16.6414 8.55313 17.1062C8.49115 17.5711 8.46016 18.0669 8.46016 18.5938C8.46016 19.0896 8.49115 19.5699 8.55313 20.0348C8.6151 20.4996 8.72357 20.9645 8.87852 21.4293L4.88086 24.4508L6.69375 27.6117L11.2957 25.6594C11.9775 26.3721 12.729 26.9687 13.5502 27.449C14.3714 27.9294 15.2624 28.2935 16.223 28.5414L16.8273 33.4688ZM18.7797 25.1016C20.5771 25.1016 22.1111 24.4663 23.3816 23.1957C24.6522 21.9251 25.2875 20.3911 25.2875 18.5938C25.2875 16.7964 24.6522 15.2624 23.3816 13.9918C22.1111 12.7212 20.5771 12.0859 18.7797 12.0859C16.9513 12.0859 15.4096 12.7212 14.1545 13.9918C12.8994 15.2624 12.2719 16.7964 12.2719 18.5938C12.2719 20.3911 12.8994 21.9251 14.1545 23.1957C15.4096 24.4663 16.9513 25.1016 18.7797 25.1016Z" fill="#1D1B20"/>
</svg>
