<svg width="34" height="34" viewBox="0 0 34 34" fill="none" xmlns="http://www.w3.org/2000/svg">
<path d="M11.3333 3.23809V0H22.6667V3.23809H11.3333ZM15.1111 21.0476H18.8889V11.3333H15.1111V21.0476ZM10.4116 32.8472C8.35015 32.0776 6.54815 31.0317 5.00556 29.7095C3.46297 28.3873 2.24337 26.8422 1.34678 25.0742C0.450188 23.3062 0.0012619 21.4243 2.6418e-06 19.4286C-0.00125662 17.4328 0.447669 15.5504 1.34678 13.7813C2.24589 12.0123 3.46548 10.4677 5.00556 9.14762C6.54563 7.82755 8.34826 6.78219 10.4134 6.01152C12.4786 5.24086 14.6741 4.85606 17 4.85714C18.9519 4.85714 20.825 5.12698 22.6194 5.66667C24.4139 6.20635 26.0981 6.98889 27.6722 8.01428L30.3167 5.74762L32.9611 8.01428L30.3167 10.2809C31.513 11.6302 32.4259 13.0738 33.0556 14.6119C33.6852 16.15 34 17.7556 34 19.4286C34 21.4254 33.5511 23.3078 32.6532 25.0758C31.7554 26.8438 30.5358 28.3884 28.9944 29.7095C27.4531 31.0307 25.6505 32.0766 23.5866 32.8472C21.5226 33.6179 19.3271 34.0021 17 34C14.6729 33.9978 12.4767 33.6136 10.4116 32.8472ZM26.35 27.4429C28.9315 25.2302 30.2222 22.5587 30.2222 19.4286C30.2222 16.2984 28.9315 13.627 26.35 11.4143C23.7685 9.20158 20.6519 8.09524 17 8.09524C13.3481 8.09524 10.2315 9.20158 7.65 11.4143C5.06852 13.627 3.77778 16.2984 3.77778 19.4286C3.77778 22.5587 5.06852 25.2302 7.65 27.4429C10.2315 29.6555 13.3481 30.7619 17 30.7619C20.6519 30.7619 23.7685 29.6555 26.35 27.4429Z" fill="black"/>
</svg>
