<svg width="35" height="35" viewBox="0 0 35 35" fill="none" xmlns="http://www.w3.org/2000/svg">
<path d="M35 28.3333V30H0V28.3333L3.88889 25V15C3.88889 9.83333 7.83611 5.28333 13.6111 3.81667V3.33333C13.6111 2.44928 14.0208 1.60143 14.7501 0.976311C15.4794 0.351189 16.4686 0 17.5 0C18.5314 0 19.5205 0.351189 20.2499 0.976311C20.9792 1.60143 21.3889 2.44928 21.3889 3.33333V3.81667C27.1639 5.28333 31.1111 9.83333 31.1111 15V25L35 28.3333ZM21.3889 31.6667C21.3889 32.5507 20.9792 33.3986 20.2499 34.0237C19.5205 34.6488 18.5314 35 17.5 35C16.4686 35 15.4794 34.6488 14.7501 34.0237C14.0208 33.3986 13.6111 32.5507 13.6111 31.6667" fill="black"/>
</svg>
