<svg width="38" height="38" viewBox="0 0 38 38" fill="none" xmlns="http://www.w3.org/2000/svg">
<path d="M18.5938 37.1875C16.0526 37.1875 13.6509 36.6994 11.3887 35.7232C9.12643 34.7471 7.15085 33.4145 5.46191 31.7256C3.77298 30.0367 2.44043 28.0611 1.46426 25.7988C0.488086 23.5366 0 21.1349 0 18.5938C0 16.0216 0.488086 13.6122 1.46426 11.3654C2.44043 9.11869 3.77298 7.15085 5.46191 5.46191C7.15085 3.77298 9.12643 2.44043 11.3887 1.46426C13.6509 0.488086 16.0526 0 18.5938 0C21.1659 0 23.5753 0.488086 25.8221 1.46426C28.0688 2.44043 30.0367 3.77298 31.7256 5.46191C33.4145 7.15085 34.7471 9.11869 35.7232 11.3654C36.6994 13.6122 37.1875 16.0216 37.1875 18.5938C37.1875 21.1349 36.6994 23.5366 35.7232 25.7988C34.7471 28.0611 33.4145 30.0367 31.7256 31.7256C30.0367 33.4145 28.0688 34.7471 25.8221 35.7232C23.5753 36.6994 21.1659 37.1875 18.5938 37.1875ZM18.5938 33.3758C19.3995 32.2602 20.0967 31.098 20.6855 29.8895C21.2743 28.6809 21.7547 27.3948 22.1266 26.0312H15.0609C15.4328 27.3948 15.9132 28.6809 16.502 29.8895C17.0908 31.098 17.788 32.2602 18.5938 33.3758ZM13.7594 32.632C13.2016 31.6094 12.7135 30.548 12.2951 29.4479C11.8768 28.3477 11.5281 27.2089 11.2492 26.0312H5.76406C6.66276 27.5807 7.78613 28.9288 9.13418 30.0754C10.4822 31.222 12.024 32.0742 13.7594 32.632ZM23.4281 32.632C25.1635 32.0742 26.7053 31.222 28.0533 30.0754C29.4014 28.9288 30.5247 27.5807 31.4234 26.0312H25.9383C25.6594 27.2089 25.3107 28.3477 24.8924 29.4479C24.474 30.548 23.9859 31.6094 23.4281 32.632ZM4.18359 22.3125H10.5055C10.4125 21.6927 10.3428 21.0807 10.2963 20.4764C10.2498 19.8721 10.2266 19.2445 10.2266 18.5938C10.2266 17.943 10.2498 17.3154 10.2963 16.7111C10.3428 16.1068 10.4125 15.4948 10.5055 14.875H4.18359C4.02865 15.4948 3.91243 16.1068 3.83496 16.7111C3.75749 17.3154 3.71875 17.943 3.71875 18.5938C3.71875 19.2445 3.75749 19.8721 3.83496 20.4764C3.91243 21.0807 4.02865 21.6927 4.18359 22.3125ZM14.2242 22.3125H22.9633C23.0563 21.6927 23.126 21.0807 23.1725 20.4764C23.2189 19.8721 23.2422 19.2445 23.2422 18.5938C23.2422 17.943 23.2189 17.3154 23.1725 16.7111C23.126 16.1068 23.0563 15.4948 22.9633 14.875H14.2242C14.1313 15.4948 14.0615 16.1068 14.015 16.7111C13.9686 17.3154 13.9453 17.943 13.9453 18.5938C13.9453 19.2445 13.9686 19.8721 14.015 20.4764C14.0615 21.0807 14.1313 21.6927 14.2242 22.3125ZM26.682 22.3125H33.0039C33.1589 21.6927 33.2751 21.0807 33.3525 20.4764C33.43 19.8721 33.4688 19.2445 33.4688 18.5938C33.4688 17.943 33.43 17.3154 33.3525 16.7111C33.2751 16.1068 33.1589 15.4948 33.0039 14.875H26.682C26.775 15.4948 26.8447 16.1068 26.8912 16.7111C26.9377 17.3154 26.9609 17.943 26.9609 18.5938C26.9609 19.2445 26.9377 19.8721 26.8912 20.4764C26.8447 21.0807 26.775 21.6927 26.682 22.3125ZM25.9383 11.1562H31.4234C30.5247 9.60677 29.4014 8.25872 28.0533 7.11211C26.7053 5.96549 25.1635 5.11328 23.4281 4.55547C23.9859 5.57813 24.474 6.63952 24.8924 7.73965C25.3107 8.83978 25.6594 9.97865 25.9383 11.1562ZM15.0609 11.1562H22.1266C21.7547 9.79271 21.2743 8.50664 20.6855 7.29805C20.0967 6.08945 19.3995 4.92734 18.5938 3.81172C17.788 4.92734 17.0908 6.08945 16.502 7.29805C15.9132 8.50664 15.4328 9.79271 15.0609 11.1562ZM5.76406 11.1562H11.2492C11.5281 9.97865 11.8768 8.83978 12.2951 7.73965C12.7135 6.63952 13.2016 5.57813 13.7594 4.55547C12.024 5.11328 10.4822 5.96549 9.13418 7.11211C7.78613 8.25872 6.66276 9.60677 5.76406 11.1562Z" fill="#1D1B20"/>
</svg>
